<?xml version="1.0" encoding="UTF-8" standalone="no"?>
<svg
   id="svg34"
   width="21.737427"
   height="18.666124"
   version="1.1"
   viewBox="0 0 21.737427 18.666124"
   xmlns="http://www.w3.org/2000/svg"
   xmlns:svg="http://www.w3.org/2000/svg">
  <defs
     id="defs841" />
  <path
     style="fill:#808080;fill-opacity:1;stroke:none;stroke-width:1.35809px;stroke-linecap:butt;stroke-linejoin:miter;stroke-opacity:1"
     d="m 13.029682,0.98183244 1.012712,0.26780376 c 0,0 3.816103,9.2541668 4.626228,14.6732398 l -5.595208,-0.03794 -2.286477,-2.011017 -2.6062683,2.011017 -5.4907463,0.04674 c 0,0 0.3347202,-8.6476611 10.3397596,-14.94984216 z"
     id="path1457" />
  <path
     style="fill:#ffffff;fill-opacity:1;stroke:none;stroke-width:1.35809px;stroke-linecap:butt;stroke-linejoin:miter;stroke-opacity:1"
     d="m 11.814495,1.1423976 2.308912,0.1875212 3.443025,7.5749207 c 0,0 -12.3135753,0.1348497 -12.5676508,6.278e-4 0,0 2.3071944,-4.2612031 6.8157138,-7.7630697 z"
     id="path1020" />
  <g
     id="g32"
     transform="matrix(0.03633328,0,0,0.03600593,0.56950054,-28.047693)"
     fill="none"
     stroke="#000000"
     stroke-width="4mm"
     style="stroke-width:31.3487;stroke-linecap:round;stroke-linejoin:round;stroke-miterlimit:4;stroke-dasharray:none">
    <path
       id="path6"
       d="m 339.17,1226.5 -0.21,4.812 -0.628,4.776 -1.043,4.702 -1.448,4.594 -1.844,4.45 -2.224,4.273 -2.588,4.062 -2.932,3.822 -3.254,3.551 -3.552,3.254"
       style="stroke-width:31.3487;stroke-linecap:round;stroke-linejoin:round;stroke-miterlimit:4;stroke-dasharray:none" />
    <path
       id="path8"
       d="m 319.45,1268.8 -3.821,2.933 -4.063,2.588 -4.272,2.224 -4.45,1.843 -4.594,1.449 -4.703,1.042 -4.775,0.629 -4.813,0.21 -4.812,-0.21 -4.775,-0.629"
       style="stroke-width:31.3487;stroke-linecap:round;stroke-linejoin:round;stroke-miterlimit:4;stroke-dasharray:none" />
    <path
       id="path10"
       d="m 274.37,1280.9 -4.703,-1.042 -4.594,-1.449 -4.45,-1.843 -4.273,-2.224 -4.062,-2.588 -3.821,-2.933 -3.552,-3.254 -3.254,-3.551 -2.932,-3.822 -2.588,-4.062"
       style="stroke-width:31.3487;stroke-linecap:round;stroke-linejoin:round;stroke-miterlimit:4;stroke-dasharray:none" />
    <path
       id="path12"
       d="m 236.14,1254.1 -2.224,-4.273 -1.844,-4.45 -1.448,-4.594 -1.043,-4.702 -0.629,-4.776 -0.21,-4.812 0.21,-4.812 0.629,-4.776 1.043,-4.702 1.448,-4.594"
       style="stroke-width:31.3487;stroke-linecap:round;stroke-linejoin:round;stroke-miterlimit:4;stroke-dasharray:none" />
    <path
       id="path14"
       d="m 232.07,1207.7 1.844,-4.45 2.224,-4.273 2.588,-4.062 2.932,-3.822 3.254,-3.551 3.552,-3.254 3.821,-2.933 4.062,-2.588 4.273,-2.224 4.45,-1.843"
       style="stroke-width:31.3487;stroke-linecap:round;stroke-linejoin:round;stroke-miterlimit:4;stroke-dasharray:none" />
    <path
       id="path16"
       d="m 265.07,1174.7 4.594,-1.449 4.703,-1.042 4.775,-0.629 4.812,-0.21 4.813,0.21 4.775,0.629 4.703,1.042 4.594,1.449 4.45,1.843 4.272,2.224"
       style="stroke-width:31.3487;stroke-linecap:round;stroke-linejoin:round;stroke-miterlimit:4;stroke-dasharray:none" />
    <path
       id="path18"
       d="m 311.56,1178.7 4.063,2.588 3.821,2.933 3.552,3.254 3.254,3.551 2.932,3.822 2.588,4.062 2.224,4.273 1.844,4.45 1.448,4.594 1.043,4.702"
       style="stroke-width:31.3487;stroke-linecap:round;stroke-linejoin:round;stroke-miterlimit:4;stroke-dasharray:none" />
    <path
       id="path20"
       d="m 338.33,1217 0.628,4.776 0.21,4.812 -0.21,4.812"
       style="stroke-width:31.3487;stroke-linecap:round;stroke-linejoin:round;stroke-miterlimit:4;stroke-dasharray:none" />
    <path
       id="path22"
       d="m 62.116,1226.5 11.831,-89.723 18.733,-73.947 27.607,-55.214 40.425,-59.158 33.523,-42.396 49.298,-43.383 65.073,-37.466 49.299,-30.565 17.747,30.565 40.425,70.989"
       style="stroke-width:31.3487;stroke-linecap:round;stroke-linejoin:round;stroke-miterlimit:4;stroke-dasharray:none" />
    <path
       id="path24"
       d="m 416.08,896.24 40.424,92.681 14.79,65.073"
       style="stroke-width:31.3487;stroke-linecap:round;stroke-linejoin:round;stroke-miterlimit:4;stroke-dasharray:none" />
    <path
       id="path26"
       d="M 0,1226.5 H 226.57086"
       style="stroke-width:31.3487;stroke-linecap:round;stroke-linejoin:round;stroke-miterlimit:4;stroke-dasharray:none" />
    <path
       id="path28"
       d="m 471.29,1054 12.817,82.821 5.916,89.723"
       style="stroke-width:31.3487;stroke-linecap:round;stroke-linejoin:round;stroke-miterlimit:4;stroke-dasharray:none" />
    <path
       id="path30"
       d="M 343.63285,1226.5 H 566.93"
       style="stroke-width:31.3487;stroke-linecap:round;stroke-linejoin:round;stroke-miterlimit:4;stroke-dasharray:none" />
  </g>
</svg>
